<?xml version="1.0" encoding="UTF-8" standalone="no"?>
<!-- Created with Fritzing (http://www.fritzing.org/) -->

<svg
   xmlns:dc="http://purl.org/dc/elements/1.1/"
   xmlns:cc="http://creativecommons.org/ns#"
   xmlns:rdf="http://www.w3.org/1999/02/22-rdf-syntax-ns#"
   xmlns:svg="http://www.w3.org/2000/svg"
   xmlns="http://www.w3.org/2000/svg"
   xmlns:sodipodi="http://sodipodi.sourceforge.net/DTD/sodipodi-0.dtd"
   xmlns:inkscape="http://www.inkscape.org/namespaces/inkscape"
   width="0.659917in"
   viewBox="0 0 47.514 45.4581"
   height="0.631362in"
   x="0in"
   y="0in"
   version="1.2"
   id="svg3193"
   inkscape:version="0.48.4 r9939"
   sodipodi:docname="Untitled Sketch 3_etch_copper_bottom_mirror.svg">
  <metadata
     id="metadata3269">
    <rdf:RDF>
      <cc:Work
         rdf:about="">
        <dc:format>image/svg+xml</dc:format>
        <dc:type
           rdf:resource="http://purl.org/dc/dcmitype/StillImage" />
      </cc:Work>
    </rdf:RDF>
  </metadata>
  <defs
     id="defs3267" />
  <sodipodi:namedview
     pagecolor="#ffffff"
     bordercolor="#666666"
     borderopacity="1"
     objecttolerance="10"
     gridtolerance="10"
     guidetolerance="10"
     inkscape:pageopacity="0"
     inkscape:pageshadow="2"
     inkscape:window-width="2560"
     inkscape:window-height="1402"
     id="namedview3265"
     showgrid="false"
     inkscape:zoom="21.716718"
     inkscape:cx="29.696264"
     inkscape:cy="28.411291"
     inkscape:window-x="0"
     inkscape:window-y="37"
     inkscape:window-maximized="0"
     inkscape:current-layer="svg3193" />
  <rect
     style="fill:none;stroke:#000000;stroke-width:0.5"
     id="boardoutline"
     y="0.28799999"
     x="-47.226002"
     height="44.882099"
     width="46.938"
     transform="scale(-1,1)" />
  <path
     style="font-size:medium;font-style:normal;font-variant:normal;font-weight:normal;font-stretch:normal;text-indent:0;text-align:start;text-decoration:none;line-height:normal;letter-spacing:normal;word-spacing:normal;text-transform:none;direction:ltr;block-progression:tb;writing-mode:lr-tb;text-anchor:start;baseline-shift:baseline;color:#000000;fill:#000000;fill-opacity:1;stroke:none;stroke-width:1.13383996;marker:none;visibility:visible;display:inline;overflow:visible;enable-background:accumulate;font-family:Sans;-inkscape-font-specification:Sans"
     d="M 16.15625 6.34375 C 14.228393 6.34375 12.65625 7.9471421 12.65625 9.875 C 12.65625 11.424172 13.690627 12.724945 15.09375 13.1875 L 15.09375 25.1875 L 14.0625 25.1875 L 13.3125 25.1875 L 13.3125 25.90625 L 13.3125 30.15625 L 13.3125 30.84375 L 14.0625 30.84375 L 18.28125 30.84375 L 19.03125 30.84375 L 19.03125 30.15625 L 19.03125 25.90625 L 19.03125 25.1875 L 18.28125 25.1875 L 17.28125 25.1875 L 17.28125 13.1875 C 18.669986 12.716574 19.6875 11.413844 19.6875 9.875 C 19.6875 7.9471421 18.084109 6.34375 16.15625 6.34375 z M 25.1875 6.34375 C 23.259643 6.34375 21.65625 7.9471421 21.65625 9.875 C 21.65625 11.802858 23.259643 13.375 25.1875 13.375 C 26.221487 13.375 27.135421 12.908479 27.78125 12.1875 L 30.84375 13.53125 C 30.835258 13.628505 30.8125 13.713067 30.8125 13.8125 C 30.8125 15.6658 32.30295 17.21875 34.15625 17.21875 C 36.00955 17.21875 37.53125 15.6658 37.53125 13.8125 C 37.53125 11.959201 36.00955 10.46875 34.15625 10.46875 C 33.189264 10.46875 32.332072 10.875836 31.71875 11.53125 L 28.65625 10.21875 C 28.66835 10.10122 28.6875 9.9954911 28.6875 9.875 C 28.6875 7.9471421 27.115357 6.34375 25.1875 6.34375 z M 16.15625 8.1875 C 17.111317 8.1875 17.875 8.9199336 17.875 9.875 C 17.875 10.710683 17.285994 11.372019 16.5 11.53125 A 1.0801072 1.0801072 0 0 0 16.0625 11.46875 A 1.0801072 1.0801072 0 0 0 15.84375 11.53125 C 15.049803 11.38357 14.46875 10.721189 14.46875 9.875 C 14.46875 8.9199336 15.201183 8.1875 16.15625 8.1875 z M 25.1875 8.1875 C 26.142567 8.1875 26.875 8.9199336 26.875 9.875 C 26.875 9.9836192 26.861768 10.084674 26.84375 10.1875 C 26.841964 10.19769 26.845705 10.208626 26.84375 10.21875 A 1.0801072 1.0801072 0 0 0 26.5625 10.84375 C 26.263515 11.281711 25.769723 11.59375 25.1875 11.59375 C 24.232433 11.59375 23.46875 10.830066 23.46875 9.875 C 23.46875 8.9199336 24.232433 8.1875 25.1875 8.1875 z M 50.09375 10.46875 C 48.24045 10.46875 46.75 11.959201 46.75 13.8125 C 46.75 15.6658 48.24045 17.21875 50.09375 17.21875 C 51.94705 17.21875 53.5 15.6658 53.5 13.8125 C 53.5 11.959201 51.94705 10.46875 50.09375 10.46875 z M 34.15625 12.25 C 35.036758 12.25 35.71875 12.931992 35.71875 13.8125 C 35.71875 14.693008 35.036758 15.4375 34.15625 15.4375 C 33.275742 15.4375 32.59375 14.693008 32.59375 13.8125 C 32.59375 13.713334 32.60839 13.624689 32.625 13.53125 C 32.626825 13.520982 32.622983 13.51019 32.625 13.5 A 1.0927024 1.0927024 0 0 0 32.875 12.9375 C 32.883479 12.924813 32.897409 12.918656 32.90625 12.90625 C 33.186454 12.513073 33.622766 12.25 34.15625 12.25 z M 50.09375 12.25 C 50.974258 12.25 51.71875 12.931992 51.71875 13.8125 C 51.71875 14.693008 50.974258 15.4375 50.09375 15.4375 C 49.213242 15.4375 48.53125 14.693008 48.53125 13.8125 C 48.53125 12.931992 49.213242 12.25 50.09375 12.25 z M 15.84375 26.625 A 1.0937492 1.0937492 0 0 0 16.53125 26.625 C 17.131484 26.794735 17.5625 27.371938 17.5625 28.03125 C 17.5625 28.723528 17.085254 29.277704 16.4375 29.40625 L 15.875 29.40625 C 15.319782 29.296068 14.891432 28.867718 14.78125 28.3125 L 14.78125 27.75 C 14.888665 27.202478 15.308952 26.754766 15.84375 26.625 z M 34.15625 33.5 C 32.30295 33.5 30.8125 35.0217 30.8125 36.875 C 30.8125 38.7283 32.30295 40.21875 34.15625 40.21875 C 36.00955 40.21875 37.53125 38.7283 37.53125 36.875 C 37.53125 35.0217 36.00955 33.5 34.15625 33.5 z M 50.09375 33.5 C 48.24045 33.5 46.75 35.0217 46.75 36.875 C 46.75 38.617935 48.081072 40.022672 49.78125 40.1875 L 50.40625 43.03125 C 49.448106 43.62586 48.78125 44.676256 48.78125 45.875 C 48.78125 47.7283 50.3342 49.21875 52.1875 49.21875 C 54.0408 49.21875 55.53125 47.7283 55.53125 45.875 C 55.53125 44.137531 54.223784 42.703499 52.53125 42.53125 L 51.875 39.71875 C 52.843461 39.126297 53.5 38.081554 53.5 36.875 C 53.5 35.0217 51.94705 33.5 50.09375 33.5 z M 16.15625 34.03125 C 14.599111 34.03125 13.34375 35.349111 13.34375 36.90625 C 13.34375 38.084285 14.069644 39.049067 15.09375 39.46875 L 15.09375 42.71875 C 13.777784 43.174002 12.8125 44.405568 12.8125 45.875 C 12.8125 47.7283 14.30295 49.21875 16.15625 49.21875 C 18.00955 49.21875 19.53125 47.7283 19.53125 45.875 C 19.53125 44.415888 18.582797 43.181877 17.28125 42.71875 L 17.28125 39.46875 C 18.302224 39.042689 19 38.074104 19 36.90625 C 19 35.349111 17.713389 34.03125 16.15625 34.03125 z M 34.15625 35.3125 C 35.036758 35.3125 35.71875 35.994492 35.71875 36.875 C 35.71875 37.755508 35.036758 38.4375 34.15625 38.4375 C 33.275742 38.4375 32.59375 37.755508 32.59375 36.875 C 32.59375 35.994492 33.275742 35.3125 34.15625 35.3125 z M 50.09375 35.3125 C 50.974258 35.3125 51.71875 35.994492 51.71875 36.875 C 51.71875 37.511499 51.322687 38.034849 50.78125 38.28125 A 1.0801072 1.0801072 0 0 0 50.53125 38.28125 A 1.0801072 1.0801072 0 0 0 50.15625 38.4375 C 50.136571 38.438187 50.113598 38.4375 50.09375 38.4375 C 49.213242 38.4375 48.53125 37.755508 48.53125 36.875 C 48.53125 35.994492 49.213242 35.3125 50.09375 35.3125 z M 16.15625 35.4375 C 16.947424 35.4375 17.5625 36.115076 17.5625 36.90625 C 17.5625 37.555672 17.148559 38.080654 16.5625 38.25 A 1.0801072 1.0801072 0 0 0 15.9375 38.1875 A 1.0801072 1.0801072 0 0 0 15.78125 38.25 C 15.186199 38.086094 14.75 37.561949 14.75 36.90625 C 14.75 36.115076 15.365076 35.4375 16.15625 35.4375 z M 52.09375 44.3125 C 52.125974 44.310644 52.154808 44.3125 52.1875 44.3125 C 53.068008 44.3125 53.75 44.994492 53.75 45.875 C 53.75 46.755508 53.068008 47.4375 52.1875 47.4375 C 51.306992 47.4375 50.59375 46.755508 50.59375 45.875 C 50.59375 45.224831 50.971061 44.676542 51.53125 44.4375 A 1.0804146 1.0804146 0 0 0 52.09375 44.3125 z M 15.84375 44.34375 C 15.894698 44.333667 15.947183 44.348958 16 44.34375 A 1.0937492 1.0937492 0 0 0 16.40625 44.34375 C 17.169909 44.453134 17.71875 45.074784 17.71875 45.875 C 17.71875 46.755508 17.036758 47.4375 16.15625 47.4375 C 15.275742 47.4375 14.625 46.755508 14.625 45.875 C 14.625 45.104555 15.123341 44.486325 15.84375 44.34375 z "
     transform="matrix(0.8000006,0,0,0.8000006,-2.9289109e-5,0)"
     id="connector1pad" />
</svg>
