<?xml version="1.0" encoding="UTF-8" standalone="no"?>
<!-- Created with Fritzing (http://www.fritzing.org/) -->

<svg
   xmlns:dc="http://purl.org/dc/elements/1.1/"
   xmlns:cc="http://creativecommons.org/ns#"
   xmlns:rdf="http://www.w3.org/1999/02/22-rdf-syntax-ns#"
   xmlns:svg="http://www.w3.org/2000/svg"
   xmlns="http://www.w3.org/2000/svg"
   xmlns:sodipodi="http://sodipodi.sourceforge.net/DTD/sodipodi-0.dtd"
   xmlns:inkscape="http://www.inkscape.org/namespaces/inkscape"
   width="3.33333in"
   viewBox="0 0 240 160"
   height="2.22222in"
   x="0in"
   y="0in"
   version="1.2"
   id="svg4886"
   inkscape:version="0.48.4 r9939"
   sodipodi:docname="Untitled Sketch 4_etch_copper_bottom_mirror.svg">
  <metadata
     id="metadata5187">
    <rdf:RDF>
      <cc:Work
         rdf:about="">
        <dc:format>image/svg+xml</dc:format>
        <dc:type
           rdf:resource="http://purl.org/dc/dcmitype/StillImage" />
      </cc:Work>
    </rdf:RDF>
  </metadata>
  <defs
     id="defs5185" />
  <sodipodi:namedview
     pagecolor="#ffffff"
     bordercolor="#666666"
     borderopacity="1"
     objecttolerance="10"
     gridtolerance="10"
     guidetolerance="10"
     inkscape:pageopacity="0"
     inkscape:pageshadow="2"
     inkscape:window-width="2560"
     inkscape:window-height="1402"
     id="namedview5183"
     showgrid="false"
     inkscape:zoom="5.33"
     inkscape:cx="149.99985"
     inkscape:cy="65.116215"
     inkscape:window-x="0"
     inkscape:window-y="37"
     inkscape:window-maximized="0"
     inkscape:current-layer="svg4886" />
  <path
     style="font-size:medium;font-style:normal;font-variant:normal;font-weight:normal;font-stretch:normal;text-indent:0;text-align:start;text-decoration:none;line-height:normal;letter-spacing:normal;word-spacing:normal;text-transform:none;direction:ltr;block-progression:tb;writing-mode:lr-tb;text-anchor:start;baseline-shift:baseline;color:#000000;fill:#000000;fill-opacity:1;stroke:none;stroke-width:0.5;marker:none;visibility:visible;display:inline;overflow:visible;enable-background:accumulate;font-family:Sans;-inkscape-font-specification:Sans"
     d="M 0.03125 0.03125 L 0.03125 0.34375 L 0.03125 199.65625 L 0.03125 199.96875 L 0.34375 199.96875 L 299.65625 199.96875 L 299.96875 199.96875 L 299.96875 199.65625 L 299.96875 0.34375 L 299.96875 0.03125 L 299.65625 0.03125 L 0.34375 0.03125 L 0.03125 0.03125 z M 0.65625 0.65625 L 299.34375 0.65625 L 299.34375 199.34375 L 0.65625 199.34375 L 0.65625 0.65625 z M 166.25 53.4375 C 164.32214 53.4375 162.71875 55.040892 162.71875 56.96875 C 162.71875 58.896607 164.32214 60.46875 166.25 60.46875 C 167.80047 60.46875 169.13226 59.436184 169.59375 58.03125 L 180.90625 58.03125 C 181.3688 59.434373 182.66958 60.46875 184.21875 60.46875 C 185.76922 60.46875 187.10101 59.436184 187.5625 58.03125 L 189.90625 58.03125 C 190.36774 59.436184 191.69953 60.46875 193.25 60.46875 C 195.17786 60.46875 196.75 58.896607 196.75 56.96875 C 196.75 55.040892 195.17786 53.4375 193.25 53.4375 C 191.68892 53.4375 190.35889 54.486526 189.90625 55.90625 L 187.5625 55.90625 C 187.10986 54.486526 185.77983 53.4375 184.21875 53.4375 C 182.65925 53.4375 181.36022 54.48873 180.90625 55.90625 L 169.59375 55.90625 C 169.14111 54.486526 167.81108 53.4375 166.25 53.4375 z M 220.25 53.4375 C 218.32214 53.4375 216.71875 55.040892 216.71875 56.96875 C 216.71875 58.507593 217.73626 59.810324 219.125 60.28125 L 219.125 62.65625 C 218.08915 63.007511 217.29042 63.839886 216.9375 64.875 L 169.5625 64.875 C 169.08997 63.489068 167.78683 62.46875 166.25 62.46875 C 164.32214 62.46875 162.71875 64.040893 162.71875 65.96875 C 162.71875 67.896607 164.32214 69.5 166.25 69.5 C 167.81108 69.5 169.14111 68.450974 169.59375 67.03125 L 216.90625 67.03125 C 217.24609 68.097185 218.06726 68.953818 219.125 69.3125 L 219.125 71.65625 C 217.73907 72.128783 216.71875 73.431921 216.71875 74.96875 C 216.71875 76.507593 217.73626 77.810324 219.125 78.28125 L 219.125 80.65625 C 217.73626 81.117132 216.71875 82.398657 216.71875 83.9375 C 216.71875 85.476343 217.73626 86.810324 219.125 87.28125 L 219.125 89.65625 C 217.73907 90.128783 216.71875 91.431921 216.71875 92.96875 C 216.71875 94.505579 217.73907 95.808717 219.125 96.28125 L 219.125 98.625 C 217.73626 99.095926 216.71875 100.42991 216.71875 101.96875 C 216.71875 103.89661 218.32214 105.46875 220.25 105.46875 C 222.17786 105.46875 223.75 103.89661 223.75 101.96875 C 223.75 100.4139 222.72355 99.082858 221.3125 98.625 L 221.3125 96.3125 C 222.72541 95.855753 223.75 94.524938 223.75 92.96875 C 223.75 91.412562 222.72541 90.081747 221.3125 89.625 L 221.3125 87.28125 C 222.72355 86.823392 223.75 85.492354 223.75 83.9375 C 223.75 82.382646 222.72355 81.104276 221.3125 80.65625 L 221.3125 78.28125 C 222.72355 77.823392 223.75 76.523604 223.75 74.96875 C 223.75 73.412562 222.72541 72.081747 221.3125 71.625 L 221.3125 69.3125 C 222.39069 68.962647 223.24926 68.111747 223.59375 67.03125 L 234.90625 67.03125 C 235.24909 68.106578 236.08533 68.959458 237.15625 69.3125 L 237.15625 71.625 C 235.75132 72.086487 234.71875 73.41828 234.71875 74.96875 C 234.71875 76.517921 235.75313 77.818695 237.15625 78.28125 L 237.15625 80.65625 C 235.75313 81.108896 234.71875 82.388329 234.71875 83.9375 C 234.71875 85.486671 235.75313 86.818695 237.15625 87.28125 L 237.15625 89.625 C 235.75132 90.086487 234.71875 91.41828 234.71875 92.96875 C 234.71875 94.51922 235.75132 95.851013 237.15625 96.3125 L 237.15625 98.625 C 235.75313 99.087555 234.71875 100.41958 234.71875 101.96875 C 234.71875 103.51792 235.75313 104.81869 237.15625 105.28125 L 237.15625 107.65625 C 235.75313 108.11881 234.71875 109.41958 234.71875 110.96875 C 234.71875 112.51792 235.75313 113.84994 237.15625 114.3125 L 237.15625 116.625 C 235.75132 117.08649 234.71875 118.41828 234.71875 119.96875 C 234.71875 121.89661 236.32214 123.46875 238.25 123.46875 C 240.17786 123.46875 241.75 121.89661 241.75 119.96875 C 241.75 118.40237 240.70837 117.07313 239.28125 116.625 L 239.28125 114.3125 C 240.70617 113.86302 241.75 112.53355 241.75 110.96875 C 241.75 109.40078 240.71058 108.07178 239.28125 107.625 L 239.28125 105.3125 C 240.71058 104.86572 241.75 103.53672 241.75 101.96875 C 241.75 100.40395 240.70617 99.074484 239.28125 98.625 L 239.28125 96.3125 C 240.70837 95.864367 241.75 94.535134 241.75 92.96875 C 241.75 91.402366 240.70837 90.073133 239.28125 89.625 L 239.28125 87.3125 C 240.71058 86.865723 241.75 85.505466 241.75 83.9375 C 241.75 82.369534 240.71058 81.06213 239.28125 80.625 L 239.28125 78.3125 C 240.71058 77.865723 241.75 76.536716 241.75 74.96875 C 241.75 73.402366 240.70837 72.073133 239.28125 71.625 L 239.28125 69.3125 C 240.70617 68.863016 241.75 67.533551 241.75 65.96875 C 241.75 64.400784 240.71058 63.071777 239.28125 62.625 L 239.28125 60.3125 C 240.71058 59.865723 241.75 58.536716 241.75 56.96875 C 241.75 55.040892 240.17786 53.4375 238.25 53.4375 C 236.32214 53.4375 234.71875 55.040892 234.71875 56.96875 C 234.71875 58.517921 235.75313 59.818695 237.15625 60.28125 L 237.15625 62.65625 C 236.10729 63.002051 235.2936 63.830572 234.9375 64.875 L 223.5625 64.875 C 223.20466 63.825446 222.36868 62.998962 221.3125 62.65625 L 221.3125 60.28125 C 222.72355 59.823392 223.75 58.523604 223.75 56.96875 C 223.75 55.040892 222.17786 53.4375 220.25 53.4375 z M 166.25 55.28125 C 167.07473 55.28125 167.74341 55.80003 167.90625 56.5625 A 1.0801069 1.0801069 0 0 0 167.90625 57.375 C 167.73279 58.129858 167.06377 58.6875 166.25 58.6875 C 165.29494 58.6875 164.53125 57.923817 164.53125 56.96875 C 164.53125 56.013683 165.29494 55.28125 166.25 55.28125 z M 184.21875 55.28125 C 185.01829 55.28125 185.67948 55.774263 185.875 56.5 A 1.0805908 1.0805908 0 0 0 185.875 57.46875 C 185.66004 58.172402 184.99638 58.6875 184.21875 58.6875 C 183.41921 58.6875 182.8116 58.140903 182.625 57.40625 A 1.0801069 1.0801069 0 0 0 182.625 56.53125 C 182.80156 55.789575 183.40826 55.28125 184.21875 55.28125 z M 193.25 55.28125 C 194.20506 55.28125 194.9375 56.013683 194.9375 56.96875 C 194.9375 57.923817 194.20506 58.6875 193.25 58.6875 C 192.47237 58.6875 191.80871 58.172402 191.59375 57.46875 A 1.0801069 1.0801069 0 0 0 191.59375 56.5 C 191.78927 55.774263 192.45046 55.28125 193.25 55.28125 z M 220.25 55.28125 C 221.20506 55.28125 221.9375 56.013683 221.9375 56.96875 C 221.9375 57.804433 221.37226 58.465769 220.59375 58.625 A 1.0801069 1.0801069 0 0 0 220 58.59375 A 1.0801069 1.0801069 0 0 0 219.90625 58.625 C 219.12026 58.465769 218.53125 57.804433 218.53125 56.96875 C 218.53125 56.013683 219.29494 55.28125 220.25 55.28125 z M 238.25 55.28125 C 239.20506 55.28125 239.9375 56.013683 239.9375 56.96875 C 239.9375 57.825445 239.34066 58.489331 238.53125 58.625 A 1.0801069 1.0801069 0 0 0 238 58.59375 A 1.0801069 1.0801069 0 0 0 237.90625 58.625 C 237.12026 58.465769 236.53125 57.804433 236.53125 56.96875 C 236.53125 56.013683 237.29494 55.28125 238.25 55.28125 z M 166.25 64.25 C 167.1395 64.25 167.81576 64.918731 167.90625 65.78125 A 1.0801069 1.0801069 0 0 0 167.90625 66.1875 C 167.80259 67.029445 167.12873 67.65625 166.25 67.65625 C 165.29494 67.65625 164.53125 66.923817 164.53125 65.96875 C 164.53125 65.013683 165.29494 64.25 166.25 64.25 z M 219.90625 64.28125 A 1.0937489 1.0937489 0 0 0 220.59375 64.28125 C 221.33215 64.432277 221.88411 65.066409 221.9375 65.84375 A 1.0801069 1.0801069 0 0 0 221.9375 66.125 C 221.87102 66.894769 221.30632 67.493517 220.5625 67.625 A 1.0801069 1.0801069 0 0 0 220.125 67.5625 A 1.0801069 1.0801069 0 0 0 219.90625 67.625 C 219.28264 67.504597 218.77245 67.062736 218.59375 66.46875 A 1.0801069 1.0801069 0 0 0 218.625 65.46875 C 218.80914 64.877506 219.29023 64.406047 219.90625 64.28125 z M 238.6875 64.3125 C 239.41491 64.506939 239.9375 65.168058 239.9375 65.96875 C 239.9375 66.825961 239.34142 67.496383 238.53125 67.625 A 1.0801069 1.0801069 0 0 0 238.125 67.5625 A 1.0801069 1.0801069 0 0 0 237.90625 67.625 C 237.27314 67.502763 236.76528 67.045264 236.59375 66.4375 A 1.0801069 1.0801069 0 0 0 236.59375 65.5 C 236.75381 64.939795 237.19288 64.510764 237.75 64.34375 A 1.0801069 1.0801069 0 0 0 238.6875 64.3125 z M 166.25 71.4375 C 164.32214 71.4375 162.71875 73.040893 162.71875 74.96875 C 162.71875 76.896607 164.32214 78.46875 166.25 78.46875 C 167.78683 78.46875 169.08997 77.448432 169.5625 76.0625 L 180.90625 76.0625 C 181.26129 77.109489 182.10547 77.934848 183.15625 78.28125 L 183.15625 80.65625 C 181.75313 81.118805 180.71875 82.419578 180.71875 83.96875 C 180.71875 85.896607 182.29089 87.5 184.21875 87.5 C 186.14661 87.5 187.75 85.896607 187.75 83.96875 C 187.75 82.419578 186.71562 81.118805 185.3125 80.65625 L 185.3125 78.28125 C 186.71562 77.818695 187.75 76.517921 187.75 74.96875 C 187.75 73.040893 186.14661 71.4375 184.21875 71.4375 C 182.65925 71.4375 181.36022 72.48873 180.90625 73.90625 L 169.59375 73.90625 C 169.14111 72.486526 167.81108 71.4375 166.25 71.4375 z M 202.21875 71.4375 C 200.29089 71.4375 198.71875 73.040893 198.71875 74.96875 C 198.71875 76.517921 199.75313 77.818695 201.15625 78.28125 L 201.15625 80.65625 C 199.75313 81.118805 198.71875 82.419578 198.71875 83.96875 C 198.71875 84.541148 198.87772 85.08272 199.125 85.5625 L 192.8125 91.9375 L 184.40625 91.9375 L 169.6875 84.5 C 169.71684 84.318724 169.75 84.126488 169.75 83.9375 C 169.75 82.009643 168.17786 80.46875 166.25 80.46875 C 164.32214 80.46875 162.71875 82.009643 162.71875 83.9375 C 162.71875 85.865357 164.32214 87.46875 166.25 87.46875 C 167.21393 87.46875 168.08083 87.075423 168.71875 86.4375 L 183.65625 93.96875 A 1.0801069 1.0801069 0 0 0 183.6875 93.96875 A 1.0801069 1.0801069 0 0 0 184.59375 94.09375 L 192.84375 94.09375 A 1.0801069 1.0801069 0 0 0 193.59375 94.09375 A 1.0801069 1.0801069 0 0 0 194.40625 93.375 L 200.625 87.09375 C 201.10943 87.347164 201.63879 87.5 202.21875 87.5 C 204.14661 87.5 205.75 85.896607 205.75 83.96875 C 205.75 82.419578 204.71562 81.118805 203.3125 80.65625 L 203.3125 78.28125 C 204.71562 77.818695 205.75 76.517921 205.75 74.96875 C 205.75 73.040893 204.14661 71.4375 202.21875 71.4375 z M 166.25 73.25 C 167.06548 73.25 167.73441 73.805225 167.90625 74.5625 A 1.0801069 1.0801069 0 0 0 167.90625 75.375 C 167.73279 76.129858 167.06377 76.6875 166.25 76.6875 C 165.29494 76.6875 164.53125 75.923817 164.53125 74.96875 C 164.53125 74.013683 165.29494 73.25 166.25 73.25 z M 184.21875 73.28125 C 185.17381 73.28125 185.9375 74.013683 185.9375 74.96875 C 185.9375 75.804433 185.34849 76.465769 184.5625 76.625 A 1.0801069 1.0801069 0 0 0 184.21875 76.5625 A 1.0801069 1.0801069 0 0 0 183.90625 76.625 C 183.25823 76.504463 182.78619 76.040862 182.625 75.40625 A 1.0801069 1.0801069 0 0 0 182.625 74.53125 C 182.80156 73.789575 183.40826 73.28125 184.21875 73.28125 z M 202.21875 73.28125 C 203.17381 73.28125 203.9375 74.013683 203.9375 74.96875 C 203.9375 75.794332 203.36538 76.455093 202.59375 76.625 A 1.0801069 1.0801069 0 0 0 202.21875 76.5625 A 1.0801069 1.0801069 0 0 0 201.90625 76.625 C 201.11231 76.47732 200.53125 75.814939 200.53125 74.96875 C 200.53125 74.013683 201.26369 73.28125 202.21875 73.28125 z M 219.84375 73.28125 A 1.0937489 1.0937489 0 0 0 220.625 73.28125 C 221.38747 73.452038 221.9375 74.144019 221.9375 74.96875 C 221.9375 75.782528 221.40271 76.474397 220.65625 76.65625 A 1.0801069 1.0801069 0 0 0 220.21875 76.5625 A 1.0801069 1.0801069 0 0 0 219.84375 76.625 C 219.09039 76.442108 218.53125 75.781475 218.53125 74.96875 C 218.53125 74.15327 219.08648 73.461416 219.84375 73.28125 z M 238.71875 73.3125 C 239.4286 73.517971 239.9375 74.180163 239.9375 74.96875 C 239.9375 75.782528 239.40271 76.474397 238.65625 76.65625 A 1.0801069 1.0801069 0 0 0 238.1875 76.5625 A 1.0801069 1.0801069 0 0 0 237.84375 76.625 C 237.09039 76.442108 236.53125 75.781475 236.53125 74.96875 C 236.53125 74.199187 237.02649 73.565394 237.71875 73.34375 A 1.0801069 1.0801069 0 0 0 238.71875 73.3125 z M 166.25 82.28125 C 167.20506 82.28125 167.9375 82.982433 167.9375 83.9375 C 167.9375 84.089943 167.90991 84.234636 167.875 84.375 A 1.0801069 1.0801069 0 0 0 167.5 85.09375 C 167.1967 85.441212 166.75923 85.65625 166.25 85.65625 C 165.29494 85.65625 164.53125 84.892567 164.53125 83.9375 C 164.53125 82.982433 165.29494 82.28125 166.25 82.28125 z M 183.75 82.3125 C 183.75928 82.309846 183.7719 82.314999 183.78125 82.3125 A 1.0801069 1.0801069 0 0 0 184.6875 82.34375 C 185.40916 82.547633 185.9375 83.17838 185.9375 83.96875 C 185.9375 84.923817 185.17381 85.65625 184.21875 85.65625 C 183.26369 85.65625 182.53125 84.923817 182.53125 83.96875 C 182.53125 83.17835 183.03752 82.516356 183.75 82.3125 z M 201.75 82.3125 C 201.75928 82.309846 201.7719 82.314999 201.78125 82.3125 A 1.0801069 1.0801069 0 0 0 202.6875 82.34375 C 203.40916 82.547633 203.9375 83.17838 203.9375 83.96875 C 203.9375 84.923817 203.17381 85.65625 202.21875 85.65625 C 201.8606 85.65625 201.54853 85.552739 201.28125 85.375 A 1.0801069 1.0801069 0 0 0 200.78125 84.90625 C 200.61797 84.645973 200.53125 84.3109 200.53125 83.96875 C 200.53125 83.17835 201.03752 82.516356 201.75 82.3125 z M 219.90625 82.3125 C 219.95687 82.302727 220.01031 82.317975 220.0625 82.3125 A 1.0937489 1.0937489 0 0 0 220.46875 82.3125 C 221.31069 82.41616 221.9375 83.058761 221.9375 83.9375 C 221.9375 84.783947 221.35682 85.47761 220.5625 85.625 A 1.0801069 1.0801069 0 0 0 220.125 85.59375 A 1.0801069 1.0801069 0 0 0 219.90625 85.625 C 219.12026 85.465769 218.53125 84.773183 218.53125 83.9375 C 218.53125 83.101817 219.12026 82.464254 219.90625 82.3125 z M 237.78125 82.34375 A 1.0801069 1.0801069 0 0 0 238.65625 82.34375 C 239.39792 82.520312 239.9375 83.127008 239.9375 83.9375 C 239.9375 84.794711 239.34142 85.489934 238.53125 85.625 A 1.0801069 1.0801069 0 0 0 238.125 85.59375 A 1.0801069 1.0801069 0 0 0 237.90625 85.625 C 237.12026 85.465769 236.53125 84.773183 236.53125 83.9375 C 236.53125 83.144978 237.05654 82.536544 237.78125 82.34375 z M 166.25 89.46875 C 164.32214 89.46875 162.71875 91.040893 162.71875 92.96875 C 162.71875 94.896607 164.32214 96.5 166.25 96.5 C 167.21393 96.5 168.08083 96.075423 168.71875 95.4375 L 174 98.09375 A 1.0801069 1.0801069 0 0 0 174.0625 98.125 A 1.0801069 1.0801069 0 0 0 174.34375 98.25 L 180.75 101.4375 C 180.724 101.60843 180.71875 101.79107 180.71875 101.96875 C 180.71875 103.51792 181.75313 104.81869 183.15625 105.28125 L 183.15625 107.65625 C 181.75313 108.1188 180.71875 109.41958 180.71875 110.96875 C 180.71875 112.89661 182.29089 114.5 184.21875 114.5 C 186.14661 114.5 187.75 112.89661 187.75 110.96875 C 187.75 109.41958 186.71562 108.1188 185.3125 107.65625 L 185.3125 105.28125 C 186.71562 104.81869 187.75 103.51792 187.75 101.96875 C 187.75 100.04089 186.14661 98.4375 184.21875 98.4375 C 183.23097 98.4375 182.36014 98.865421 181.71875 99.53125 L 175.1875 96.28125 A 1.0801069 1.0801069 0 0 0 175.03125 96.21875 L 174.84375 96.125 A 1.0801069 1.0801069 0 0 0 174.75 96.09375 L 169.71875 93.5 C 169.74475 93.32907 169.75 93.146435 169.75 92.96875 C 169.75 91.040893 168.17786 89.46875 166.25 89.46875 z M 166.25 91.25 C 167.20506 91.25 167.9375 92.013683 167.9375 92.96875 C 167.9375 93.098235 167.93166 93.222727 167.90625 93.34375 A 1.0801069 1.0801069 0 0 0 167.53125 94.09375 C 167.2276 94.460305 166.77507 94.6875 166.25 94.6875 C 165.29494 94.6875 164.53125 93.923817 164.53125 92.96875 C 164.53125 92.013683 165.29494 91.25 166.25 91.25 z M 219.84375 91.28125 A 1.0937489 1.0937489 0 0 0 220.65625 91.28125 C 221.40271 91.463103 221.9375 92.154972 221.9375 92.96875 C 221.9375 93.782528 221.40271 94.474397 220.65625 94.65625 A 1.0801069 1.0801069 0 0 0 220.125 94.5625 A 1.0801069 1.0801069 0 0 0 219.84375 94.65625 C 219.08648 94.476084 218.53125 93.78423 218.53125 92.96875 C 218.53125 92.15327 219.08648 91.461416 219.84375 91.28125 z M 238.71875 91.3125 C 239.4286 91.517971 239.9375 92.180163 239.9375 92.96875 C 239.9375 93.793481 239.38747 94.485462 238.625 94.65625 A 1.0801069 1.0801069 0 0 0 238.125 94.5625 A 1.0801069 1.0801069 0 0 0 237.84375 94.65625 C 237.08648 94.476084 236.53125 93.78423 236.53125 92.96875 C 236.53125 92.199187 237.02649 91.565394 237.71875 91.34375 A 1.0801069 1.0801069 0 0 0 238.71875 91.3125 z M 166.25 98.4375 C 164.32214 98.4375 162.71875 100.04089 162.71875 101.96875 C 162.71875 103.89661 164.32214 105.46875 166.25 105.46875 C 166.80724 105.46875 167.34222 105.32893 167.8125 105.09375 L 174.1875 111.3125 L 174.1875 119.84375 A 1.0801069 1.0801069 0 0 0 174.1875 119.9375 L 174.1875 120 A 1.0801069 1.0801069 0 0 0 174.1875 120.0625 A 1.0801069 1.0801069 0 0 0 175.78125 121.0625 L 192.84375 121.0625 A 1.0801069 1.0801069 0 0 0 193.71875 121 A 1.0801069 1.0801069 0 0 0 194.40625 120.375 L 200.625 114.09375 C 201.10943 114.34716 201.63879 114.5 202.21875 114.5 C 204.14661 114.5 205.75 112.89661 205.75 110.96875 C 205.75 109.41958 204.71562 108.1188 203.3125 107.65625 L 203.3125 105.28125 C 204.71562 104.81869 205.75 103.51792 205.75 101.96875 C 205.75 100.04089 204.14661 98.4375 202.21875 98.4375 C 200.29089 98.4375 198.71875 100.04089 198.71875 101.96875 C 198.71875 103.51792 199.75313 104.81869 201.15625 105.28125 L 201.15625 107.65625 C 199.75313 108.1188 198.71875 109.41958 198.71875 110.96875 C 198.71875 111.53592 198.85067 112.08597 199.09375 112.5625 L 192.8125 118.90625 L 176.3125 118.90625 L 176.3125 111.3125 A 1.0801069 1.0801069 0 0 0 176.21875 110.375 A 1.0801069 1.0801069 0 0 0 176.21875 110.34375 A 1.0801069 1.0801069 0 0 0 176.15625 110.28125 A 1.0801069 1.0801069 0 0 0 176.15625 110.25 A 1.0801069 1.0801069 0 0 0 176.09375 110.1875 A 1.0801069 1.0801069 0 0 0 175.78125 109.90625 L 169.34375 103.5625 C 169.60166 103.07472 169.75 102.55421 169.75 101.96875 C 169.75 100.04089 168.17786 98.4375 166.25 98.4375 z M 166.25 100.28125 C 167.20506 100.28125 167.9375 101.01368 167.9375 101.96875 C 167.9375 102.301 167.84208 102.58192 167.6875 102.84375 A 1.0801069 1.0801069 0 0 0 167.125 103.40625 C 166.86934 103.567 166.58224 103.6875 166.25 103.6875 C 165.29494 103.6875 164.53125 102.92382 164.53125 101.96875 C 164.53125 101.01368 165.29494 100.28125 166.25 100.28125 z M 184.21875 100.28125 C 185.17381 100.28125 185.9375 101.01368 185.9375 101.96875 C 185.9375 102.80443 185.34849 103.46577 184.5625 103.625 A 1.0801069 1.0801069 0 0 0 184.03125 103.59375 A 1.0801069 1.0801069 0 0 0 183.90625 103.625 C 183.11231 103.47732 182.53125 102.81494 182.53125 101.96875 C 182.53125 101.88002 182.55039 101.77186 182.5625 101.6875 A 1.0801069 1.0801069 0 0 0 183 100.78125 C 183.30226 100.46262 183.72537 100.28125 184.21875 100.28125 z M 202.21875 100.28125 C 203.17381 100.28125 203.9375 101.01368 203.9375 101.96875 C 203.9375 102.80443 203.34849 103.46577 202.5625 103.625 A 1.0801069 1.0801069 0 0 0 202 103.59375 A 1.0801069 1.0801069 0 0 0 201.875 103.625 C 201.09649 103.46577 200.53125 102.80443 200.53125 101.96875 C 200.53125 101.01368 201.26369 100.28125 202.21875 100.28125 z M 219.90625 100.3125 C 219.91637 100.31055 219.92731 100.31429 219.9375 100.3125 A 1.0937489 1.0937489 0 0 0 220.46875 100.3125 C 221.31069 100.41616 221.9375 101.09001 221.9375 101.96875 C 221.9375 102.92382 221.20506 103.6875 220.25 103.6875 C 219.29494 103.6875 218.53125 102.92382 218.53125 101.96875 C 218.53125 101.13307 219.12026 100.46425 219.90625 100.3125 z M 237.71875 100.34375 C 237.72786 100.34101 237.74083 100.34635 237.75 100.34375 A 1.0801069 1.0801069 0 0 0 238.65625 100.34375 C 239.39792 100.52031 239.9375 101.15826 239.9375 101.96875 C 239.9375 102.82544 239.34066 103.48933 238.53125 103.625 A 1.0801069 1.0801069 0 0 0 238 103.59375 A 1.0801069 1.0801069 0 0 0 237.90625 103.625 C 237.12026 103.46577 236.53125 102.80443 236.53125 101.96875 C 236.53125 101.19643 237.0226 100.55336 237.71875 100.34375 z M 166.25 107.46875 C 164.32214 107.46875 162.71875 109.04089 162.71875 110.96875 C 162.71875 111.42646 162.80645 111.87857 162.96875 112.28125 L 160.21875 114.5625 A 1.0801069 1.0801069 0 0 0 160.03125 114.6875 L 160 114.71875 A 1.0801069 1.0801069 0 0 0 159.9375 114.75 A 1.082883 1.082883 0 0 0 159.90625 114.8125 A 1.0801069 1.0801069 0 0 0 159.875 114.84375 A 1.082883 1.082883 0 0 0 159.84375 114.875 A 1.0801069 1.0801069 0 0 0 159.8125 114.90625 A 1.082883 1.082883 0 0 0 159.78125 114.96875 A 1.0801069 1.0801069 0 0 0 159.75 115.03125 A 1.082883 1.082883 0 0 0 159.71875 115.0625 A 1.0801069 1.0801069 0 0 0 159.71875 115.09375 A 1.082883 1.082883 0 0 0 159.6875 115.15625 A 1.0801069 1.0801069 0 0 0 159.65625 115.21875 A 1.082883 1.082883 0 0 0 159.65625 115.25 A 1.0801069 1.0801069 0 0 0 159.65625 115.28125 A 1.082883 1.082883 0 0 0 159.59375 115.59375 L 156.21875 128.375 A 1.0801069 1.0801069 0 0 0 156.09375 129.09375 A 1.0801069 1.0801069 0 0 0 156.09375 129.15625 A 1.0801069 1.0801069 0 0 0 156.125 129.21875 A 1.0801069 1.0801069 0 0 0 156.125 129.28125 A 1.0801069 1.0801069 0 0 0 156.15625 129.3125 A 1.0801069 1.0801069 0 0 0 156.15625 129.375 A 1.0801069 1.0801069 0 0 0 156.1875 129.40625 A 1.0801069 1.0801069 0 0 0 157.21875 130.125 L 174.5 138.84375 A 1.0801069 1.0801069 0 0 0 174.96875 139.09375 A 1.0801069 1.0801069 0 0 0 175.6875 139.09375 L 202.1875 139.09375 L 207.90625 139.0625 C 208.3688 140.46562 209.66958 141.5 211.21875 141.5 C 213.14661 141.5 214.75 139.89661 214.75 137.96875 C 214.75 136.41958 213.71562 135.1188 212.3125 134.65625 L 212.3125 132.28125 C 213.71562 131.8187 214.75 130.51792 214.75 128.96875 C 214.75 127.04089 213.14661 125.4375 211.21875 125.4375 C 209.29089 125.4375 207.71875 127.04089 207.71875 128.96875 C 207.71875 130.51792 208.75313 131.8187 210.15625 132.28125 L 210.15625 134.65625 C 209.09611 135.00574 208.25574 135.84611 207.90625 136.90625 L 202.1875 136.9375 L 175.5 136.9375 L 158.46875 128.375 L 161.625 116.1875 L 164.3125 113.9375 C 164.86686 114.30379 165.54221 114.5 166.25 114.5 C 168.17786 114.5 169.75 112.89661 169.75 110.96875 C 169.75 109.04089 168.17786 107.46875 166.25 107.46875 z M 166.25 109.25 C 167.20506 109.25 167.9375 110.01368 167.9375 110.96875 C 167.9375 111.92382 167.20506 112.65625 166.25 112.65625 C 165.83216 112.65625 165.4529 112.51726 165.15625 112.28125 A 1.0801069 1.0801069 0 0 0 164.6875 111.71875 C 164.58238 111.49999 164.53125 111.23342 164.53125 110.96875 C 164.53125 110.01368 165.29494 109.25 166.25 109.25 z M 183.75 109.3125 C 183.75928 109.30985 183.7719 109.315 183.78125 109.3125 A 1.0801069 1.0801069 0 0 0 184.6875 109.34375 C 185.40916 109.54763 185.9375 110.17838 185.9375 110.96875 C 185.9375 111.92382 185.17381 112.65625 184.21875 112.65625 C 183.26369 112.65625 182.53125 111.92382 182.53125 110.96875 C 182.53125 110.17835 183.03752 109.51636 183.75 109.3125 z M 201.75 109.3125 C 201.75928 109.30985 201.7719 109.315 201.78125 109.3125 A 1.0801069 1.0801069 0 0 0 202.6875 109.34375 C 203.40916 109.54763 203.9375 110.17838 203.9375 110.96875 C 203.9375 111.92382 203.17381 112.65625 202.21875 112.65625 C 201.8606 112.65625 201.54853 112.55274 201.28125 112.375 A 1.0801069 1.0801069 0 0 0 200.78125 111.90625 C 200.61797 111.64597 200.53125 111.3109 200.53125 110.96875 C 200.53125 110.17835 201.03752 109.51636 201.75 109.3125 z M 238.6875 109.3125 C 239.41491 109.50694 239.9375 110.16806 239.9375 110.96875 C 239.9375 111.82596 239.34142 112.49638 238.53125 112.625 A 1.0801069 1.0801069 0 0 0 238.125 112.5625 A 1.0801069 1.0801069 0 0 0 237.90625 112.625 C 237.12026 112.47325 236.53125 111.80443 236.53125 110.96875 C 236.53125 110.18797 237.0419 109.55603 237.75 109.34375 A 1.0801069 1.0801069 0 0 0 238.6875 109.3125 z M 166.25 116.4375 C 164.32214 116.4375 162.71875 118.04089 162.71875 119.96875 C 162.71875 121.89661 164.32214 123.46875 166.25 123.46875 C 167.21393 123.46875 168.08083 123.07542 168.71875 122.4375 L 180.75 128.4375 C 180.724 128.60843 180.71875 128.79106 180.71875 128.96875 C 180.71875 130.89661 182.29089 132.46875 184.21875 132.46875 C 185.76922 132.46875 187.10101 131.43618 187.5625 130.03125 L 189.90625 130.03125 C 190.36774 131.43618 191.69953 132.46875 193.25 132.46875 C 195.17786 132.46875 196.75 130.89661 196.75 128.96875 C 196.75 127.04089 195.17786 125.4375 193.25 125.4375 C 191.69953 125.4375 190.36774 126.47007 189.90625 127.875 L 187.5625 127.875 C 187.10101 126.47007 185.76922 125.4375 184.21875 125.4375 C 183.23942 125.4375 182.359 125.8441 181.71875 126.5 L 169.71875 120.46875 C 169.74393 120.30046 169.75 120.14356 169.75 119.96875 C 169.75 118.04089 168.17786 116.4375 166.25 116.4375 z M 166.25 118.25 C 167.20506 118.25 167.9375 119.01368 167.9375 119.96875 C 167.9375 120.09909 167.93198 120.222 167.90625 120.34375 A 1.0801069 1.0801069 0 0 0 167.5 121.09375 C 167.19643 121.45135 166.76768 121.6875 166.25 121.6875 C 165.29494 121.6875 164.53125 120.92382 164.53125 119.96875 C 164.53125 119.01368 165.29494 118.25 166.25 118.25 z M 238.71875 118.3125 C 239.4286 118.51797 239.9375 119.18016 239.9375 119.96875 C 239.9375 120.92382 239.20506 121.6875 238.25 121.6875 C 237.29494 121.6875 236.53125 120.92382 236.53125 119.96875 C 236.53125 119.19919 237.02649 118.56539 237.71875 118.34375 A 1.0801069 1.0801069 0 0 0 238.71875 118.3125 z M 184.21875 127.28125 C 185.00733 127.28125 185.66953 127.7589 185.875 128.46875 A 1.0805908 1.0805908 0 0 0 185.875 129.46875 C 185.66004 130.1724 184.99638 130.6875 184.21875 130.6875 C 183.26369 130.6875 182.53125 129.92381 182.53125 128.96875 C 182.53125 128.88002 182.55039 128.77186 182.5625 128.6875 A 1.0801069 1.0801069 0 0 0 183 127.78125 C 183.30226 127.46262 183.72537 127.28125 184.21875 127.28125 z M 193.25 127.28125 C 194.20506 127.28125 194.9375 128.01369 194.9375 128.96875 C 194.9375 129.92381 194.20506 130.6875 193.25 130.6875 C 192.47237 130.6875 191.80871 130.1724 191.59375 129.46875 A 1.0801069 1.0801069 0 0 0 191.59375 128.5 C 191.78927 127.77426 192.45046 127.28125 193.25 127.28125 z M 211.21875 127.28125 C 212.17381 127.28125 212.9375 128.01369 212.9375 128.96875 C 212.9375 129.81493 212.33219 130.47732 211.53125 130.625 A 1.0801069 1.0801069 0 0 0 211.09375 130.59375 A 1.0801069 1.0801069 0 0 0 210.875 130.625 C 210.09649 130.46577 209.53125 129.80443 209.53125 128.96875 C 209.53125 128.01369 210.26369 127.28125 211.21875 127.28125 z M 210.75 136.34375 A 1.0801069 1.0801069 0 0 0 211.75 136.34375 C 212.44457 136.56406 212.9375 137.19756 212.9375 137.96875 C 212.9375 138.92381 212.17381 139.65625 211.21875 139.65625 C 210.40603 139.65625 209.79946 139.11993 209.625 138.375 A 1.0801069 1.0801069 0 0 0 209.625 137.53125 C 209.77221 136.95168 210.18323 136.51021 210.75 136.34375 z "
     transform="matrix(0.80000081,0,0,0.80000081,0,-2.0345073e-6)"
     id="boardoutline" />
</svg>
