<?xml version='1.0' encoding='UTF-8' standalone='no'?>
<!-- Created with Fritzing (http://www.fritzing.org/) -->
<svg xmlns="http://www.w3.org/2000/svg" width="3.33333in" viewBox="0 0 240 160"  height="2.22222in" x="0in" baseProfile="tiny" y="0in" version="1.2" xmlns:svg="http://www.w3.org/2000/svg">
 <g transform="matrix(-1, 0, 0, 1, 240, 0)">
  <g partID="854110780">
   <g  id="board">
    <rect fill="none" width="239.424" stroke="black"  stroke-width="0.5" height="159.424" x="0.288" fill-opacity="0.5" y="0.288" id="boardoutline"/>
   </g>
  </g>
  <g partID="854122980">
   <g transform="translate(101.971,40.5334)">
    <g  id="copper0">
     <circle cy="5.04" fill="black" r="2.088" stroke="black"  stroke-width="2.16" id="connector0pin" cx="5.04"/>
     <circle cy="12.24" fill="black" r="2.088" stroke="black"  stroke-width="2.16" id="connector1pin" cx="5.04"/>
     <circle cy="19.44" fill="black" r="2.088" stroke="black"  stroke-width="2.16" id="connector2pin" cx="5.04"/>
     <circle cy="26.64" fill="black" r="2.088" stroke="black"  stroke-width="2.16" id="connector3pin" cx="5.04"/>
     <circle cy="33.84" fill="black" r="2.088" stroke="black"  stroke-width="2.16" id="connector4pin" cx="5.04"/>
     <circle cy="41.04" fill="black" r="2.088" stroke="black"  stroke-width="2.16" id="connector5pin" cx="5.04"/>
     <circle cy="48.24" fill="black" r="2.088" stroke="black"  stroke-width="2.16" id="connector6pin" cx="5.04"/>
     <circle cy="55.44" fill="black" r="2.088" stroke="black"  stroke-width="2.16" id="connector7pin" cx="5.04"/>
    </g>
   </g>
  </g>
  <g partID="854132060">
   <g transform="translate(83.2509,72.2134)">
    <g transform="matrix(-1,0,0,-1,0,0)">
     <g  id="copper0">
      <circle cy="5.04" fill="black" r="2.088" stroke="black"  stroke-width="2.16" id="connector0pin" cx="5.04"/>
      <circle cy="12.24" fill="black" r="2.088" stroke="black"  stroke-width="2.16" id="connector1pin" cx="5.04"/>
     </g>
    </g>
   </g>
  </g>
  <g partID="854131900">
   <g transform="translate(97.6509,72.2134)">
    <g transform="matrix(-1,0,0,-1,0,0)">
     <g  id="copper0">
      <circle cy="5.04" fill="black" r="2.088" stroke="black"  stroke-width="2.16" id="connector0pin" cx="5.04"/>
      <circle cy="12.24" fill="black" r="2.088" stroke="black"  stroke-width="2.16" id="connector1pin" cx="5.04"/>
     </g>
    </g>
   </g>
  </g>
  <g partID="854131660">
   <g transform="translate(97.6509,40.5334)">
    <g transform="matrix(0,1,-1,0,0,0)">
     <g  id="copper0">
      <circle cy="5.04" fill="black" r="2.088" stroke="black"  stroke-width="2.16" id="connector0pin" cx="5.04"/>
      <circle cy="12.24" fill="black" r="2.088" stroke="black"  stroke-width="2.16" id="connector1pin" cx="5.04"/>
     </g>
    </g>
   </g>
  </g>
  <g partID="854142940">
   <g transform="translate(58.7709,40.5334)">
    <g  id="copper0">
     <circle cy="5.04" fill="black" r="2.088" stroke="black"  stroke-width="2.16" id="connector0pin" cx="5.04"/>
     <circle cy="12.24" fill="black" r="2.088" stroke="black"  stroke-width="2.16" id="connector1pin" cx="5.04"/>
     <circle cy="19.44" fill="black" r="2.088" stroke="black"  stroke-width="2.16" id="connector2pin" cx="5.04"/>
     <circle cy="26.64" fill="black" r="2.088" stroke="black"  stroke-width="2.16" id="connector3pin" cx="5.04"/>
     <circle cy="33.84" fill="black" r="2.088" stroke="black"  stroke-width="2.16" id="connector4pin" cx="5.04"/>
     <circle cy="41.04" fill="black" r="2.088" stroke="black"  stroke-width="2.16" id="connector5pin" cx="5.04"/>
    </g>
   </g>
  </g>
  <g partID="854132180">
   <g transform="translate(97.6509,93.8134)">
    <g transform="matrix(-1,0,0,-1,0,0)">
     <g  id="copper0">
      <circle cy="5.04" fill="black" r="2.088" stroke="black"  stroke-width="2.16" id="connector0pin" cx="5.04"/>
      <circle cy="12.24" fill="black" r="2.088" stroke="black"  stroke-width="2.16" id="connector1pin" cx="5.04"/>
     </g>
    </g>
   </g>
  </g>
  <g partID="854135100">
   <g transform="translate(44.3709,40.5334)">
    <g  id="copper0">
     <circle cy="5.04" fill="black" r="2.088" stroke="black"  stroke-width="2.16" id="connector0pin" cx="5.04"/>
     <circle cy="12.24" fill="black" r="2.088" stroke="black"  stroke-width="2.16" id="connector1pin" cx="5.04"/>
     <circle cy="19.44" fill="black" r="2.088" stroke="black"  stroke-width="2.16" id="connector2pin" cx="5.04"/>
     <circle cy="26.64" fill="black" r="2.088" stroke="black"  stroke-width="2.16" id="connector3pin" cx="5.04"/>
     <circle cy="33.84" fill="black" r="2.088" stroke="black"  stroke-width="2.16" id="connector4pin" cx="5.04"/>
     <circle cy="41.04" fill="black" r="2.088" stroke="black"  stroke-width="2.16" id="connector5pin" cx="5.04"/>
     <circle cy="48.24" fill="black" r="2.088" stroke="black"  stroke-width="2.16" id="connector6pin" cx="5.04"/>
     <circle cy="55.44" fill="black" r="2.088" stroke="black"  stroke-width="2.16" id="connector7pin" cx="5.04"/>
    </g>
   </g>
  </g>
  <g partID="854132740">
   <g transform="translate(97.6509,98.1334)">
    <g transform="matrix(0,1,-1,0,0,0)">
     <g  id="copper0">
      <circle cy="5.04" fill="black" r="2.088" stroke="black"  stroke-width="2.16" id="connector0pin" cx="5.04"/>
      <circle cy="12.24" fill="black" r="2.088" stroke="black"  stroke-width="2.16" id="connector1pin" cx="5.04"/>
     </g>
    </g>
   </g>
  </g>
  <g partID="854132420">
   <g transform="translate(83.2509,93.8134)">
    <g transform="matrix(-1,0,0,-1,0,0)">
     <g  id="copper0">
      <circle cy="5.04" fill="black" r="2.088" stroke="black"  stroke-width="2.16" id="connector0pin" cx="5.04"/>
      <circle cy="12.24" fill="black" r="2.088" stroke="black"  stroke-width="2.16" id="connector1pin" cx="5.04"/>
     </g>
    </g>
   </g>
  </g>
  <g partID="854132580">
   <g transform="translate(76.0509,115.413)">
    <g transform="matrix(-1,0,0,-1,0,0)">
     <g  id="copper0">
      <circle cy="5.04" fill="black" r="2.088" stroke="black"  stroke-width="2.16" id="connector0pin" cx="5.04"/>
      <circle cy="12.24" fill="black" r="2.088" stroke="black"  stroke-width="2.16" id="connector1pin" cx="5.04"/>
     </g>
    </g>
   </g>
  </g>
 </g>
</svg>
